<svg width="476" height="550" viewBox="0 0 476 550" fill="none" xmlns="http://www.w3.org/2000/svg">
<mask id="mask0_21_42" style="mask-type:alpha" maskUnits="userSpaceOnUse" x="0" y="0" width="476" height="550">
<rect width="476" height="550" rx="3" fill="white"/>
</mask>
<g mask="url(#mask0_21_42)">
<path d="M33.0695 98C12.5263 62 -3.00632 -5 -3.00632 -5H581.221V447.5H492.034C492.034 447.5 443.933 376.5 383.305 356C322.678 335.5 319.672 279.5 278.585 231C237.499 182.5 190.4 174.5 135.785 172C81.1705 169.5 53.6126 134 33.0695 98Z" fill="#5CB8FF"/>
<path d="M74.1558 70C53.6126 34 38.08 -33 38.08 -33H622.307V419.5H533.12C533.12 419.5 485.019 348.5 424.392 328C363.764 307.5 360.758 251.5 319.672 203C278.585 154.5 231.486 146.5 176.872 144C122.257 141.5 94.6989 106 74.1558 70Z" fill="#85CAFF"/>
<path d="M84.1768 2C63.6337 -34 48.1011 -101 48.1011 -101H632.328V351.5H543.141C543.141 351.5 495.04 280.5 434.413 260C373.785 239.5 370.779 183.5 329.693 135C288.606 86.5 241.507 78.5 186.893 76C132.278 73.5 104.72 38 84.1768 2Z" fill="#AEDCFF"/>
</g>
</svg>
